<mxfile host="Electron" modified="2024-04-19T03:16:19.798Z" agent="Mozilla/5.0 (X11; Linux x86_64) AppleWebKit/537.36 (KHTML, like Gecko) draw.io/24.2.5 Chrome/120.0.6099.109 Electron/28.1.0 Safari/537.36" etag="9dE0ScioNAo5Hcw3G_wp" version="24.2.5" type="device">
  <diagram name="第 1 页" id="cdh9SdncL-ek3W731Wnn">
    <mxGraphModel dx="446" dy="543" grid="1" gridSize="10" guides="1" tooltips="1" connect="1" arrows="1" fold="1" page="1" pageScale="1" pageWidth="827" pageHeight="1169" math="0" shadow="0">
      <root>
        <mxCell id="0" />
        <mxCell id="1" parent="0" />
        <mxCell id="MIuIbsWunCmqSpHIr6Lf-1" value="Mux" style="shadow=0;dashed=0;align=center;html=1;strokeWidth=1;shape=mxgraph.electrical.abstract.mux2;whiteSpace=wrap;" vertex="1" parent="1">
          <mxGeometry x="320" y="560" width="80" height="120" as="geometry" />
        </mxCell>
        <mxCell id="MIuIbsWunCmqSpHIr6Lf-8" style="edgeStyle=orthogonalEdgeStyle;rounded=0;orthogonalLoop=1;jettySize=auto;html=1;exitX=1;exitY=0.25;exitDx=0;exitDy=0;exitPerimeter=0;" edge="1" parent="1" source="MIuIbsWunCmqSpHIr6Lf-2">
          <mxGeometry relative="1" as="geometry">
            <mxPoint x="560" y="614.9615384615385" as="targetPoint" />
          </mxGeometry>
        </mxCell>
        <mxCell id="MIuIbsWunCmqSpHIr6Lf-2" value="DFF" style="verticalLabelPosition=middle;shadow=0;dashed=0;align=center;html=1;verticalAlign=middle;shape=mxgraph.electrical.logic_gates.d_type_flip-flop;labelPosition=center;" vertex="1" parent="1">
          <mxGeometry x="400" y="595" width="100" height="80" as="geometry" />
        </mxCell>
        <mxCell id="MIuIbsWunCmqSpHIr6Lf-3" style="edgeStyle=orthogonalEdgeStyle;rounded=0;orthogonalLoop=1;jettySize=auto;html=1;exitX=1;exitY=0.25;exitDx=0;exitDy=0;exitPerimeter=0;entryX=0;entryY=0.21666666666666667;entryDx=0;entryDy=3;entryPerimeter=0;endArrow=none;endFill=0;" edge="1" parent="1" source="MIuIbsWunCmqSpHIr6Lf-2" target="MIuIbsWunCmqSpHIr6Lf-1">
          <mxGeometry relative="1" as="geometry">
            <Array as="points">
              <mxPoint x="520" y="615" />
              <mxPoint x="520" y="540" />
              <mxPoint x="300" y="540" />
              <mxPoint x="300" y="589" />
            </Array>
          </mxGeometry>
        </mxCell>
        <mxCell id="MIuIbsWunCmqSpHIr6Lf-4" value="in" style="text;strokeColor=none;align=center;fillColor=none;html=1;verticalAlign=middle;whiteSpace=wrap;rounded=0;" vertex="1" parent="1">
          <mxGeometry x="310" y="636" width="10" height="10" as="geometry" />
        </mxCell>
        <mxCell id="MIuIbsWunCmqSpHIr6Lf-5" value="load" style="text;strokeColor=none;align=center;fillColor=none;html=1;verticalAlign=middle;whiteSpace=wrap;rounded=0;" vertex="1" parent="1">
          <mxGeometry x="345" y="680" width="30" height="10" as="geometry" />
        </mxCell>
        <mxCell id="MIuIbsWunCmqSpHIr6Lf-10" value="out" style="text;strokeColor=none;align=center;fillColor=none;html=1;verticalAlign=middle;whiteSpace=wrap;rounded=0;" vertex="1" parent="1">
          <mxGeometry x="560" y="610" width="20" height="10" as="geometry" />
        </mxCell>
        <mxCell id="MIuIbsWunCmqSpHIr6Lf-11" value="" style="ellipse;whiteSpace=wrap;html=1;aspect=fixed;" vertex="1" parent="1">
          <mxGeometry x="517.5" y="612.5" width="5" height="5" as="geometry" />
        </mxCell>
        <mxCell id="MIuIbsWunCmqSpHIr6Lf-12" value="ck" style="text;strokeColor=none;align=center;fillColor=none;html=1;verticalAlign=middle;whiteSpace=wrap;rounded=0;" vertex="1" parent="1">
          <mxGeometry x="390" y="680" width="20" height="10" as="geometry" />
        </mxCell>
        <mxCell id="MIuIbsWunCmqSpHIr6Lf-15" style="edgeStyle=orthogonalEdgeStyle;rounded=0;orthogonalLoop=1;jettySize=auto;html=1;entryX=0;entryY=0.75;entryDx=0;entryDy=0;entryPerimeter=0;endArrow=none;endFill=0;" edge="1" parent="1" source="MIuIbsWunCmqSpHIr6Lf-12" target="MIuIbsWunCmqSpHIr6Lf-2">
          <mxGeometry relative="1" as="geometry">
            <Array as="points">
              <mxPoint x="400" y="660" />
              <mxPoint x="400" y="660" />
            </Array>
          </mxGeometry>
        </mxCell>
      </root>
    </mxGraphModel>
  </diagram>
</mxfile>
